<svg enable-background="new 0 0 300 300" height="300" viewBox="0 0 300 300" width="300" xmlns="http://www.w3.org/2000/svg"><path d="m22.884 195.866c-11.791 0-21.384 9.594-21.384 21.382 0 11.787 9.593 21.381 21.384 21.381s21.385-9.59 21.385-21.381-9.591-21.382-21.385-21.382zm0 32.889c-6.349 0-11.513-5.166-11.513-11.507 0-6.343 5.164-11.511 11.513-11.511 6.346 0 11.514 5.168 11.514 11.511 0 6.341-5.164 11.507-11.514 11.507zm132.083 22.354c-11.791 0-21.381 9.59-21.381 21.38 0 11.791 9.59 21.381 21.381 21.381 11.794 0 21.384-9.59 21.384-21.381 0-11.79-9.59-21.38-21.384-21.38zm0 32.884c-6.347 0-11.515-5.164-11.515-11.506 0-6.345 5.168-11.51 11.515-11.51 6.349 0 11.514 5.165 11.514 11.51-.001 6.342-5.166 11.506-11.514 11.506zm-21.861-132.254c-13.177 0-23.901 10.719-23.901 23.896 0 13.171 10.725 23.9 23.901 23.9 13.182 0 23.906-10.729 23.906-23.9.001-13.177-10.724-23.896-23.906-23.896zm0 28.059c-2.293 0-4.161-1.869-4.161-4.162 0-2.294 1.865-4.159 4.161-4.159 2.295 0 4.166 1.861 4.166 4.159 0 2.293-1.871 4.162-4.166 4.162zm-100.174 9.787 84.078-129.242c1.485-2.284 4.537-2.931 6.825-1.445 2.288 1.485 2.937 4.541 1.445 6.825l-84.077 129.241c-.944 1.451-2.525 2.242-4.139 2.242-.921 0-1.858-.257-2.683-.798-2.286-1.486-2.937-4.541-1.449-6.823zm119.211-49.855 123.334-130.511c3.743-3.962 9.984-4.135 13.955-.396 3.954 3.739 4.128 9.986.387 13.949l-123.329 130.512c-1.937 2.057-4.56 3.096-7.17 3.096-2.434 0-4.875-.898-6.782-2.701-3.96-3.741-4.135-9.989-.395-13.949zm144.561 25.689-114.713 94.431c-.925.76-2.033 1.128-3.132 1.128-1.43 0-2.846-.614-3.817-1.8-1.733-2.103-1.427-5.217.674-6.943l114.703-94.434c2.125-1.741 5.227-1.424 6.958.678 1.727 2.102 1.43 5.212-.673 6.94zm-163.598 48.463c-21.086 0-38.242-17.156-38.242-38.246.002-8.552 2.765-16.639 7.985-23.396.02-.029.05-.029.063-.06l84.85-117.94c1.59-2.218 4.677-2.719 6.894-1.128 2.206 1.601 2.716 4.676 1.118 6.89l-85.001 118.16c-.029.039-.069.05-.099.088l-.014.027c-3.87 5.012-5.917 11.018-5.923 17.362 0 15.642 12.728 28.377 28.373 28.377 9.035 0 17.326-4.155 22.741-11.393.09-.125.225-.185.333-.29.088-.116.135-.251.242-.348l105.812-99.375c1.985-1.859 5.108-1.763 6.977.21 1.872 1.994 1.765 5.119-.218 6.979l-105.823 99.373c-.02.02-.05.029-.07.039-7.295 9.291-18.136 14.671-29.998 14.671z" fill="#fff"/></svg>