<?xml version="1.0" encoding="UTF-8"?>
<!DOCTYPE svg  PUBLIC '-//W3C//DTD SVG 1.1//EN'  'http://www.w3.org/Graphics/SVG/1.1/DTD/svg11.dtd'>
<svg width="922.34px" height="155.08px" enable-background="new 0 202.461 922.339 155.077" version="1.1" viewBox="0 202.46 922.34 155.08" xml:space="preserve" xmlns="http://www.w3.org/2000/svg">

	
		<rect x="307.2" y="202.46" width="615.14" height="155.08" fill="none"/>
		<path d="m72.369 256.37h-16.984v22.154h16.984c8.123 0 13.292-4.431 13.292-11.077 1e-3 -7.384-5.169-11.077-13.292-11.077z" fill="#fff"/>
		<path d="m228.18 256.37h-13.292v46.523h13.292c14.031 0 23.631-9.6 23.631-22.893-1e-3 -14.03-9.601-23.63-23.631-23.63z" fill="#fff"/>
		<path d="m0 202.46v155.08h307.2v-155.08h-307.2zm86.4 116.68-16.246-25.107h-14.769v25.107h-16.985v-78.277h35.446c9.6 0 17.723 2.954 22.892 8.123 4.431 4.431 6.646 10.339 6.646 17.723 0 12.554-6.646 20.677-16.246 24.37l19.2 28.062h-19.938zm93.785 0h-59.077v-78.277h58.338v15.508h-41.354v15.508h36.185v15.508h-36.185v16.246h42.092v15.507zm48-0.739h-30.277v-77.539h30.277c24.369 0 41.354 16.985 41.354 38.4 0 22.155-16.985 39.139-41.354 39.139z" fill="#fff"/>
		<path d="m103.38 266.71c0-7.384-2.215-13.292-6.646-17.723-5.169-5.169-13.292-8.123-22.892-8.123h-35.447v78.277h16.985v-25.107h14.769l16.246 25.107h19.938l-19.2-28.062c9.6-3.692 16.247-11.815 16.247-24.369zm-31.016 11.815h-16.984v-22.154h16.984c8.123 0 13.292 3.692 13.292 11.077 1e-3 6.646-5.169 11.077-13.292 11.077z" fill="none"/>
		<polygon points="138.09 287.38 174.28 287.38 174.28 271.88 138.09 271.88 138.09 256.37 179.45 256.37 179.45 240.86 121.11 240.86 121.11 240.86 121.11 319.14 180.18 319.14 180.18 303.63 138.09 303.63" fill="none"/>
		<path d="m228.18 240.86h-30.277v77.539h30.277c24.369 0 41.354-16.984 41.354-39.139 0-21.415-16.985-38.4-41.354-38.4zm0 62.032h-13.292v-46.523h13.292c14.031 0 23.631 9.6 23.631 23.631-1e-3 13.292-9.601 22.892-23.631 22.892z" fill="none"/>
	
	<g fill="#fff">
		<path d="m379.57 240.86h12.554l33.97 77.539h-14.031l-8.123-18.462h-36.185l-8.123 18.462h-14.031l33.969-77.539zm19.201 47.262-13.292-31.015-13.292 31.015h26.584z"/>
		<path d="m430.52 280.74c0-22.154 16.246-39.877 39.877-39.877 14.03 0 22.892 5.169 30.276 11.815l-8.861 10.339c-5.907-5.908-12.554-9.6-21.415-9.6-14.77 0-25.108 11.815-25.108 27.323 0 14.77 10.339 27.323 25.108 27.323 9.6 0 15.508-3.692 22.153-9.601l8.861 8.862c-8.123 8.123-16.984 13.292-31.015 13.292-22.891-0.737-39.876-17.721-39.876-39.876z"/>
		<path d="m542.03 240.86h12.554l33.969 77.539h-14.03l-8.123-18.462h-36.186l-8.123 18.462h-14.03l33.969-77.539zm19.199 47.262-13.292-31.015-13.292 31.015h26.584z"/>
		<path d="m601.11 241.6h28.801c24.369 0 40.615 16.246 40.615 38.4 0 21.416-16.985 38.4-40.615 38.4h-28.801v-76.8zm14.032 12.554v52.431h14.77c16.246 0 26.584-11.077 26.584-25.847 0-14.769-10.338-25.846-26.584-25.846h-14.77v-0.738z"/>
		<path d="M686.77,241.6h56.861v12.554h-43.569v19.938h38.4v11.816h-38.4v20.677h44.308V318.4h-57.6V241.6z"/>
		<path d="m760.62 241.6h14.031l23.631 36.185 23.63-36.185h14.031v76.8h-13.292v-54.646l-24.369 36.185h-0.739l-24.369-36.185v54.646h-12.554v-76.8z"/>
		<path d="m878.03 288.12-30.277-46.523h16.246l21.415 33.969 21.416-33.969h15.508l-30.277 46.523v31.016h-13.292v-31.016h-0.739z"/>
	</g>

</svg>
